# xmcd CD database file
#
# Track frame offsets:
#	150
#	16878
#	37883
#	53497
#	66122
#	82171
#	90655
#	107527
#	119083
#	137587
#	148300
#	163551
#	178962
#	190783
#	202819
#	213393
#
# Disc length: 3080 seconds
#
# Revision: 2
# Processed by: cddbd v1.5.1PL0 Copyright (c) Steve Scherf et al.
# Submitted via: CDex 1.51
#
DISCID=df0c0610
DTITLE=Twisted Willie - Twisted Willie (Willie Nelson Tribute)
DYEAR=1996
DGENRE=Country
TTITLE0=Time of the Preacher - Johnny Cash
TTITLE1=Three Days- L7
TTITLE2=Shotgun Willie - Tenderloin
TTITLE3=Bloody Mary Morning - Supersuckers
TTITLE4=She's Not For You - Mark Lanegan
TTITLE5=Devil in a Sleeping Bag - The Presidents of the United States of America
TTITLE6=I've Seen All The World I Care to See - Jerry Cantrell
TTITLE7=Pick Up The Tempo - Best Kissers in the World
TTITLE8=Still is Still Moving to Me - Jello Biafra
TTITLE9=I Never Cared For You - Waylon Jennings
TTITLE10=Hello Walls - Reverend Horton Heat
TTITLE11=I Gotta Get Drunk - Gas Huffer
TTITLE12=The Ghost - Steel Pole Bath Tub
TTITLE13=Sad Songs and Waltzes - Jesse Dayton
TTITLE14=Home Hotel - X
TTITLE15=Angel Flying to Close to the Ground - Kelley Deal
EXTD=YEAR: 1996
EXTT0=
EXTT1=
EXTT2=
EXTT3=
EXTT4=
EXTT5=
EXTT6=
EXTT7=
EXTT8=
EXTT9=
EXTT10=
EXTT11=
EXTT12=
EXTT13=
EXTT14=
EXTT15=
PLAYORDER=
